<svg width="200" height="200" viewBox="0 0 200 200" fill="none" xmlns="http://www.w3.org/2000/svg">
<path d="M100 50C72.3857 50 50 72.3858 50 100H8.33333C8.33333 49.3739 49.3739 8.33334 100 8.33334C150.626 8.33334 191.667 49.3739 191.667 100C191.667 150.626 150.626 191.667 100 191.667V150C127.614 150 150 127.614 150 100C150 72.3858 127.614 50 100 50Z" fill="url(#paint0_linear_22_12)"/>
<path d="M8 159V192.333H41.3333V159H8Z" fill="url(#paint1_linear_22_12)"/>
<g clip-path="url(#clip0_22_12)">
<path d="M83 83V116.333H116.333V83H83Z" fill="url(#paint2_linear_22_12)"/>
</g>
<defs>
<linearGradient id="paint0_linear_22_12" x1="100" y1="8.33334" x2="100" y2="191.667" gradientUnits="userSpaceOnUse">
<stop stop-color="#EC2C2C"/>
<stop offset="1" stop-color="#0F229D"/>
</linearGradient>
<linearGradient id="paint1_linear_22_12" x1="24.6667" y1="159" x2="24.6667" y2="192.333" gradientUnits="userSpaceOnUse">
<stop stop-color="#EC2C2C"/>
<stop offset="1" stop-color="#0F229D"/>
</linearGradient>
<linearGradient id="paint2_linear_22_12" x1="99.6667" y1="83" x2="99.6667" y2="116.333" gradientUnits="userSpaceOnUse">
<stop stop-color="#EC2C2C"/>
<stop offset="1" stop-color="#0F229D"/>
</linearGradient>
<clipPath id="clip0_22_12">
<rect width="34" height="34" fill="white" transform="translate(83 83)"/>
</clipPath>
</defs>
</svg>
